<svg xmlns="http://www.w3.org/2000/svg" width="32" height="30" viewBox="0 0 32 30"><path fill="#444" d="M20.958 7.917c-.728 0-1.44.07-2.128.206L18.662 8C19.512 7.414 20 6.73 20 6V4c0-2.21-4.477-4-10-4S0 1.79 0 4v2c0 .73.487 1.412 1.338 2C.488 8.588 0 9.27 0 10v2c0 .73.487 1.412 1.338 2C.488 14.588 0 15.27 0 16v2c0 .73.487 1.412 1.338 2C.488 20.587 0 21.27 0 22v2c0 2.21 4.477 4 10 4 1.476 0 2.876-.13 4.138-.357C16.015 29.12 18.384 30 20.958 30 27.056 30 32 25.056 32 18.958s-4.944-11.04-11.042-11.04zM1 4c0-.595.903-1.34 2.3-1.9C5.074 1.39 7.453 1 10 1s4.926.39 6.7 1.1C18.097 2.66 19 3.405 19 4s-.903 1.34-2.3 1.9c-.577.23-1.218.428-1.908.588C13.36 6.822 11.718 7 10 7s-3.36-.178-4.79-.512c-.69-.16-1.332-.358-1.91-.588C1.904 5.34 1 4.595 1 4zm0 12c0-.442.498-.965 1.325-1.435C4.16 15.442 6.917 16 10 16l.32-.002c-.264.943-.403 1.934-.403 2.96V19c-1.687-.006-3.3-.184-4.708-.512-.69-.16-1.333-.357-1.91-.588C1.903 17.34 1 16.595 1 16zm9 9c-2.547 0-4.926-.39-6.7-1.1C1.903 23.34 1 22.595 1 22c0-.44.498-.965 1.325-1.436C4.16 21.444 6.917 22 10 22l.34-.002c.3 1.055.755 2.045 1.337 2.945C11.13 24.98 10.57 25 10 25zm0-12c-1.718 0-3.36-.178-4.79-.512-.69-.16-1.332-.358-1.91-.588C1.904 11.34 1 10.595 1 10c0-.442.498-.966 1.325-1.436C4.16 9.442 6.917 10 10 10c2.06 0 3.973-.25 5.564-.677-1.562.876-2.89 2.12-3.863 3.617-.553.04-1.12.06-1.7.06zm10.958 14.992c-4.99 0-9.034-4.045-9.034-9.033 0-4.99 4.045-9.037 9.034-9.037s9.034 4.045 9.034 9.035-4.044 9.032-9.034 9.032zM22 12h-2v2h-4v6h4v2h-4v2h4v2h2v-2h4v-6h-4v-2h4v-2h-4v-2zm-2 6h-2v-2h2v2zm4 2v2h-2v-2h2z"/></svg>