<svg xmlns="http://www.w3.org/2000/svg" width="41.82" height="41.82" viewBox="29.201 29.09 41.82 41.82" enable-background="new 29.201 29.09 41.82 41.82"><path fill="#fff" d="M54.444 50L70 34.444c.556-.556.89-1.444 1-2.222.11-.89-.223-1.778-.777-2.333-.557-.56-1.445-.89-2.334-.78-.89 0-1.67.44-2.23 1L50.11 45.664 34.557 30.11c-.556-.555-1.444-.888-2.222-1-.89-.11-1.778.223-2.334.78s-.89 1.444-.773 2.332c0 .89.444 1.667 1 2.222L45.777 50 30.223 65.556c-.556.556-.89 1.444-1 2.222-.11.89.222 1.778.778 2.334.556.555 1.444.89 2.333.777.89 0 1.667-.45 2.222-1L50.11 54.33l15.557 15.56c.557.555 1.445.888 2.223 1 .888.11 1.776-.224 2.333-.778.555-.556.89-1.445.777-2.334 0-.89-.444-1.666-1-2.222L54.444 50z"/></svg>