<svg xmlns="http://www.w3.org/2000/svg" width="32" height="32" viewBox="0 0 32 32"><path fill="#444" d="M32 19.003v-6.006l-4.587-.764c-.187-.567-.413-1.115-.68-1.642l2.704-3.78-4.248-4.244-3.78 2.697c-.527-.266-1.08-.495-1.647-.683L19.003 0h-6.006l-.763 4.575c-.57.188-1.12.417-1.65.684L6.81 2.56 2.56 6.81l2.7 3.78c-.264.527-.49 1.075-.677 1.642L0 12.997v6.006l4.598.766c.186.56.412 1.1.676 1.62l-2.71 3.796 4.245 4.247 3.8-2.715c.52.26 1.06.483 1.616.67l.768 4.61H19l.77-4.61c.56-.184 1.1-.408 1.617-.67l3.802 2.715 4.244-4.246-2.71-3.796c.264-.52.49-1.063.675-1.626L32 19zM16 20c-2.21 0-4-1.79-4-4s1.79-4 4-4 4 1.79 4 4c0 2.208-1.79 4-4 4z"/></svg>