<svg xmlns="http://www.w3.org/2000/svg" width="88" height="118.461" viewBox="0 0 88 118.461"><path fill="#E20613" d="M88 115.46c0 1.658-1.342 3-3 3H3c-1.656 0-3-1.342-3-3V3c0-1.656 1.344-3 3-3h42l43 37.96v77.5z"/><path d="M23.39 78.41c-7.36 5.498-12.425 13.307-10.427 14.525l-1.746-.88C10.205 90.822 12.502 84.2 23.39 78.41zm55.297-6.164c3.77-8.02-27.242-6.817-49.902 3.7 17.638-6.794 50.277-9.72 49.902-3.7zM43.604 29.52c.848-4.457-1.332-4.3-1.94-4.3l-1.376-.01c-.758 0-1.44.608-1.77 1.845-2.15 8.02 1.75 28.378 12.694 37.795 9.664 8.314 26.486 12.12 27.162 8.1-3.496 1.68-16.627-2.545-25.455-9.575-10.44-8.565-14.9-29.687-12.65-36.29.22-.66.764-1.43 1.004-1.6.937.468 2.072 1.62 2.326 4.035zm-.184 1.285c-.96 4.73-1.375 15.902-10.496 34.27-9.797 19.725-16.947 28.922-21.707 26.98l1.7.874c3.73 1.9 10.595-4.36 21.985-26.31 8.774-16.9 8.3-25.6 8.518-35.82z" fill-rule="evenodd" clip-rule="evenodd" fill="#fff"/><path fill="#E84649" d="M88 37.96H45V0z"/><path opacity=".3" d="M45 37.96h43v33.865z"/></svg>