<svg xmlns="http://www.w3.org/2000/svg" width="210" height="68.454" viewBox="0 0 210 68.454"><path fill="#005785" d="M43.98 31.874H18.524l.26-.87c1.52 0 2.628-.297 3.325-.885s1.34-1.91 1.93-3.96l5.93-20.47c.33-1.13.49-2.02.49-2.66 0-.63-.24-1.13-.71-1.51-.47-.38-1.4-.6-2.78-.66l.26-.87h15.3l-.26.87c-1.48.03-2.58.36-3.31.98s-1.37 1.91-1.94 3.84l-5.4 18.73c-.69 2.38-1.04 3.83-1.04 4.35 0 .32.17.61.53.88.35.28.92.42 1.7.42 2.6 0 5.11-.6 7.54-1.79 2.42-1.19 4.47-2.97 6.15-5.34h.99l-3.53 8.93zm-1.217.028H32.89l-1.974 2.444-2.256 2.703c-.44.58-.76 1.1-.965 1.57-.156.36-.234.72-.234 1.08 0 .38.2.72.6 1.04.4.32 1.07.5 1.99.55v.87h-9.52l.24-.87c.85-.14 1.6-.44 2.26-.9.88-.63 2.14-1.92 3.79-3.88L49.4 9.56h1.057l-1.06 26.09c-.045 1.366-.07 2.19-.07 2.47 0 1.066.217 1.84.647 2.328.43.49 1.146.77 2.15.85l-.236.87h-13.8l.26-.87c1.362-.127 2.145-.236 2.35-.33.44-.22.84-.68 1.2-1.375s.58-1.91.657-3.63l.21-4.07zm0-1.927l.61-10.39-8.86 10.39h8.25zm19.085-.543v7.217c0 .64.074 1.05.223 1.23.15.18.45.28.88.3v.35h-4.92v-.35c.41-.02.7-.13.9-.35.13-.15.2-.55.2-1.19v-5.31c0-.65-.07-1.06-.22-1.23-.15-.18-.44-.29-.86-.31v-.36h3.82zm-1.364-4.41c.422 0 .78.146 1.07.442.293.295.438.65.438 1.066 0 .416-.146.77-.44 1.06-.297.294-.653.44-1.067.44-.416 0-.77-.146-1.062-.44-.29-.29-.438-.644-.438-1.06 0-.416.146-.77.438-1.066.292-.296.645-.443 1.06-.443zm7.07 4.41v1.18c.468-.507.915-.876 1.345-1.107.42-.23.88-.346 1.38-.346.59 0 1.08.16 1.47.49.39.33.65.73.78 1.22.1.37.15 1.08.15 2.13v3.54c0 .7.06 1.13.19 1.31.12.17.39.28.79.32v.35h-4.6v-.35c.34-.05.59-.19.74-.43.1-.16.15-.57.15-1.21V32.5c0-.746-.03-1.217-.09-1.412-.06-.194-.16-.346-.3-.453-.14-.107-.3-.16-.47-.16-.56 0-1.08.398-1.56 1.196v4.88c0 .69.06 1.12.19 1.3s.36.3.7.34v.35h-4.6v-.35c.38-.04.65-.16.81-.37.11-.14.16-.56.16-1.26v-5.14c0-.69-.07-1.12-.19-1.28-.13-.17-.39-.28-.8-.33v-.36h3.72zm14.803 6.76l.302.232c-.43.805-.97 1.404-1.61 1.797s-1.32.59-2.04.59c-1.22 0-2.19-.45-2.91-1.37-.73-.91-1.09-2.01-1.09-3.3 0-1.24.33-2.33.99-3.27.8-1.13 1.9-1.7 3.3-1.7.94 0 1.69.24 2.24.71s.83 1.01.83 1.59c0 .37-.12.67-.34.89-.23.22-.52.33-.89.33-.38 0-.7-.12-.95-.38s-.4-.7-.46-1.35c-.04-.41-.13-.69-.28-.85-.15-.16-.33-.24-.53-.24-.31 0-.58.17-.8.5-.34.5-.51 1.27-.51 2.3 0 .86.13 1.68.41 2.46.27.79.64 1.37 1.12 1.75.35.28.77.42 1.26.42.32 0 .62-.07.9-.22s.62-.43 1.01-.85zm3.243-.654c.455 0 .84.16 1.154.478.314.317.473.702.473 1.15 0 .447-.16.828-.478 1.144-.32.314-.7.473-1.15.473-.45 0-.83-.158-1.15-.473-.32-.315-.48-.696-.48-1.145 0-.447.16-.832.47-1.15.31-.317.69-.477 1.14-.477z"/><path fill="#9D9D9D" d="M9.225 59.723H6.407v-.73h.935v-5.676h-.935v-.727h2.817v.728H8.29v5.677h.935v.728zm7.055 0h-1.174l-3.382-6.38v6.38h-.887V52.59h1.47l3.087 5.824V52.59h.886v7.133zm7.923-3.56c0 .65-.142 1.236-.424 1.764-.29.527-.66.936-1.13 1.227-.33.2-.69.346-1.09.436-.4.09-.93.135-1.59.135h-1.8V52.59h1.78c.69 0 1.25.05 1.66.15.41.1.75.238 1.04.414.48.304.86.708 1.13 1.213.27.505.41 1.104.41 1.797zm-.992-.014c0-.56-.09-1.03-.29-1.42-.19-.39-.48-.69-.87-.91-.28-.16-.58-.27-.89-.34-.31-.06-.69-.1-1.13-.1h-.89v5.51h.89c.46 0 .86-.04 1.2-.11.34-.07.65-.19.94-.37.36-.23.62-.53.8-.9.18-.37.27-.83.27-1.39zm7.23 3.57h-4.7v-7.13h4.7v.84h-3.75v1.95h3.75v.84h-3.75v2.65h3.75v.84zm6.17-4.98c0 .31-.05.61-.16.88s-.26.5-.46.7c-.24.24-.53.43-.87.55-.33.12-.76.18-1.27.18h-.95v2.66h-.94v-7.13h1.94c.43 0 .79.03 1.09.1.3.07.56.18.79.34.27.18.48.41.63.68s.22.61.22 1.03zm-.98.02c0-.25-.04-.46-.13-.65s-.21-.33-.39-.45c-.15-.1-.32-.17-.52-.22s-.44-.07-.74-.07h-.94v2.85h.8c.39 0 .7-.04.94-.11s.44-.18.59-.33c.15-.15.26-.32.32-.48.06-.17.09-.36.09-.57zm6.94 4.95h-4.7v-7.13h4.7v.84h-3.75v1.95h3.75v.84h-3.75v2.65h3.75v.84zm6.95 0h-1.18l-3.38-6.38v6.38h-.89v-7.13h1.47l3.09 5.82v-5.82h.89v7.13zm7.93-3.56c0 .65-.14 1.23-.42 1.76s-.66.93-1.13 1.22c-.32.2-.69.34-1.09.43s-.93.13-1.58.13h-1.8v-7.13h1.78c.69 0 1.25.05 1.66.15.41.1.76.24 1.04.41.48.3.86.71 1.13 1.21.28.51.41 1.11.41 1.8zm-.99-.02c0-.56-.1-1.03-.29-1.42-.19-.39-.48-.69-.87-.91-.28-.16-.58-.27-.89-.34-.32-.07-.69-.1-1.14-.1h-.89v5.51h.89c.46 0 .86-.04 1.2-.11.34-.07.65-.19.94-.37.35-.23.62-.53.8-.9.18-.37.27-.84.27-1.39zm7.22 3.57h-4.7v-7.13h4.7v.84h-3.75v1.95h3.75v.84h-3.75v2.65h3.75v.84zm6.95 0h-1.18l-3.38-6.38v6.38h-.89v-7.13h1.47l3.08 5.82v-5.82h.89v7.13zm6.99-6.29h-2.55v6.29h-.95v-6.29h-2.55v-.85h6.04v.84zm6.92 6.29H81.7v-.73h.935V53.3H81.7v-.727h2.82v.727h-.936v5.68h.936v.73zm7.06 0h-1.2l-3.38-6.38v6.38h-.88v-7.13h1.48l3.09 5.82v-5.82h.89v7.13zm7.08-2.04c0 .27-.06.55-.19.82s-.31.5-.54.69c-.25.2-.55.36-.89.48-.34.11-.75.17-1.23.17-.51 0-.97-.05-1.38-.15-.41-.1-.83-.24-1.25-.43v-1.18h.07c.36.3.78.53 1.25.69s.92.24 1.34.24c.59 0 1.04-.11 1.37-.33.33-.22.49-.52.49-.89 0-.32-.08-.55-.23-.7s-.39-.27-.71-.35c-.24-.06-.5-.12-.78-.16s-.57-.1-.89-.16c-.63-.14-1.1-.37-1.4-.69s-.46-.75-.46-1.27c0-.6.25-1.09.76-1.47.51-.39 1.15-.58 1.92-.58.5 0 .96.05 1.38.14s.79.22 1.11.36v1.12h-.07c-.27-.23-.63-.42-1.07-.57s-.9-.23-1.36-.23c-.51 0-.91.1-1.22.31-.31.21-.46.48-.46.81 0 .3.07.53.23.7.15.17.42.3.81.39.2.05.49.1.87.16s.69.13.96.19c.53.14.93.35 1.19.64.27.28.41.68.41 1.19zm6.9-.83c0 .52-.06.97-.17 1.35s-.3.7-.56.96c-.25.24-.53.42-.86.53-.33.11-.71.17-1.15.17-.45 0-.84-.06-1.17-.18s-.61-.29-.84-.52c-.26-.26-.44-.58-.56-.95-.11-.37-.17-.83-.17-1.37v-4.27h.95v4.32c0 .39.03.69.08.91.05.22.14.42.26.61.14.21.33.36.58.47s.53.16.87.16c.34 0 .63-.06.87-.16.24-.11.44-.26.58-.47.13-.18.22-.39.27-.63s.08-.53.08-.88v-4.34h.95v4.26zm7.71 2.86h-1.23l-2.39-2.84h-1.34v2.84h-.94v-7.13h2c.43 0 .79.03 1.08.08.29.05.55.15.78.3.26.16.46.37.61.61.15.24.22.56.22.94 0 .51-.13.94-.39 1.29-.26.34-.61.6-1.06.78l2.69 3.12zm-2.22-5.13c0-.21-.04-.39-.11-.55-.07-.16-.19-.29-.35-.4-.14-.09-.3-.16-.49-.19-.19-.04-.41-.06-.67-.06h-1.12v2.69h.96c.3 0 .56-.03.79-.08.22-.05.41-.15.57-.3.14-.13.25-.29.32-.46s.11-.4.11-.66zm8.76 5.12h-1.01l-.69-1.99H115l-.7 1.99h-.962l2.597-7.13h1.264l2.59 7.13zm-2-2.8l-1.25-3.51-1.26 3.5h2.51zm8.53 2.8h-1.17l-3.38-6.38v6.38h-.88v-7.13h1.47l3.09 5.82v-5.82h.88v7.13zm7.41-.52l-.48.21c-.14.07-.33.14-.56.21-.19.06-.4.12-.63.16s-.48.06-.75.06c-.52 0-.99-.07-1.41-.22s-.79-.37-1.1-.68c-.3-.31-.54-.69-.72-1.16-.17-.47-.25-1.01-.25-1.63 0-.59.08-1.11.25-1.58.17-.46.41-.85.72-1.17.3-.31.67-.55 1.1-.71.43-.16.9-.25 1.43-.25.38 0 .76.05 1.15.14.38.09.81.25 1.27.49v1.13h-.07c-.39-.33-.78-.57-1.17-.72-.38-.15-.8-.22-1.24-.22-.36 0-.68.06-.97.18s-.55.3-.77.54c-.22.24-.39.55-.52.91s-.18.79-.18 1.27c0 .5.07.94.2 1.3.14.36.31.65.53.88.23.24.49.41.79.52s.61.17.95.17c.45 0 .88-.08 1.28-.23.4-.16.77-.39 1.12-.71h.07v1.11zm6.04.51h-4.7v-7.13h4.7v.84h-3.75v1.95h3.75v.84h-3.75v2.65h3.75v.84zm10.58 0h-1.01l-.7-1.99h-3.08l-.7 1.99h-.96l2.6-7.14h1.26l2.6 7.13zm-2-2.81l-1.25-3.5-1.25 3.5h2.51zm9.11-.76c0 .65-.14 1.23-.42 1.76s-.66.93-1.12 1.23c-.33.2-.69.34-1.09.43-.4.09-.93.14-1.59.14h-1.8v-7.13h1.78c.7 0 1.25.05 1.66.15.41.1.76.23 1.04.41.48.3.86.7 1.14 1.21s.41 1.1.41 1.8zm-.99-.02c0-.56-.09-1.03-.29-1.42-.19-.39-.48-.69-.87-.91-.28-.16-.58-.27-.89-.33-.31-.06-.69-.1-1.13-.1h-.89v5.51h.89c.46 0 .86-.04 1.2-.1.34-.07.65-.19.94-.38.35-.23.62-.53.8-.9.18-.37.27-.84.27-1.39zm5.14 1.72c0 .62-.19 1.1-.57 1.44-.38.34-.89.51-1.53.51-.16 0-.36-.02-.62-.04-.25-.03-.47-.06-.64-.1v-.88h.05l.48.14s.39.07.59.07c.29 0 .53-.04.7-.1.17-.07.3-.17.39-.29.09-.13.14-.29.16-.47.03-.19.04-.4.04-.64V53.3h-1.51v-.76h2.46v5.28zm7.22-1.02c0 .52-.05.97-.17 1.36s-.3.7-.55.96c-.25.24-.53.42-.86.53s-.71.17-1.15.17c-.44 0-.83-.06-1.16-.18s-.61-.29-.84-.52c-.26-.26-.45-.58-.56-.95-.11-.37-.17-.83-.17-1.37v-4.27h.95v4.32c0 .39.02.69.08.92.05.22.14.42.26.61.14.2.33.36.57.47s.53.15.87.15c.35 0 .64-.05.88-.16s.43-.26.57-.47c.12-.19.21-.39.26-.63s.08-.53.08-.88V52.5h.95v4.27zm7 .83c0 .28-.06.55-.19.82-.13.27-.31.5-.54.69-.25.2-.55.36-.89.48-.34.11-.75.17-1.23.17-.51 0-.97-.05-1.38-.15-.41-.09-.83-.24-1.25-.42v-1.19h.07c.36.3.78.53 1.25.69s.92.24 1.34.24c.59 0 1.05-.11 1.37-.33.33-.22.49-.52.49-.88 0-.32-.07-.55-.23-.7s-.39-.27-.71-.35c-.24-.07-.5-.12-.78-.16-.27-.04-.57-.09-.88-.16-.63-.13-1.1-.36-1.4-.69s-.46-.75-.46-1.27c0-.6.25-1.09.75-1.47.51-.39 1.15-.58 1.92-.58.51 0 .97.05 1.38.14.42.09.79.21 1.12.35V54h-.06c-.27-.23-.63-.42-1.07-.57s-.89-.224-1.36-.224c-.51 0-.91.1-1.22.312-.31.21-.46.48-.46.813 0 .3.08.53.23.7.156.17.427.3.81.39.208.05.498.1.87.16s.7.13.96.2c.53.14.93.36 1.2.64.27.29.4.69.4 1.2zm6.61-4.25h-2.55v6.29h-.95V53.4h-2.55v-.844h6.05v.844zm5.66 6.29h-4.7v-7.13h4.7v.84h-3.75v1.95h3.75v.85h-3.75v2.65h3.75v.84zm7.41 0h-1.23l-2.39-2.83h-1.33v2.83h-.95v-7.13h2c.43 0 .79.03 1.08.08.29.05.55.15.78.3.26.16.46.37.61.61.15.25.22.56.22.94 0 .52-.13.95-.39 1.29-.26.35-.61.61-1.06.79l2.68 3.12zm-2.22-5.13c0-.2-.03-.39-.1-.54-.07-.16-.19-.29-.35-.4-.14-.09-.3-.16-.49-.19s-.41-.06-.66-.06h-1.12v2.69h.96c.3 0 .56-.02.79-.08s.41-.15.57-.29c.14-.14.25-.29.32-.47s.1-.4.1-.66zm8.32 3.09c0 .28-.06.55-.19.82-.13.27-.31.5-.54.69-.25.21-.55.37-.89.48-.34.11-.75.17-1.23.17-.51 0-.98-.05-1.39-.14-.41-.1-.83-.24-1.25-.43v-1.19h.07c.36.3.78.53 1.25.69s.92.24 1.34.24c.59 0 1.05-.11 1.37-.33.33-.22.49-.52.49-.89 0-.32-.07-.55-.23-.7s-.39-.27-.7-.35c-.24-.06-.5-.12-.78-.16-.28-.04-.57-.1-.89-.16-.63-.13-1.1-.36-1.41-.69s-.45-.75-.45-1.27c0-.6.25-1.09.76-1.47.5-.38 1.14-.57 1.92-.57.5 0 .96.05 1.38.14.42.09.79.21 1.11.35v1.12h-.07c-.27-.23-.63-.42-1.07-.57s-.9-.23-1.36-.23c-.51 0-.92.1-1.23.31-.31.21-.46.48-.46.814 0 .3.08.53.23.7.16.17.43.3.81.39.21.05.5.1.88.17s.7.13.96.193c.53.14.93.356 1.2.64.27.29.4.69.4 1.2z"/><path stroke="#9D9D9D" stroke-miterlimit="10" d="M102 21.954h107m-209 0h10m-10 46h209M.5 21.454v47m209-47v47" fill="none"/></svg>