<svg xmlns="http://www.w3.org/2000/svg" width="68.703" height="42.174" viewBox="0 0 68.703 42.174"><path fill="#fff" d="M25.456 31.874H0l.26-.87c1.52 0 2.628-.297 3.325-.885.697-.59 1.344-1.91 1.94-3.96l5.92-20.47c.33-1.13.494-2.02.494-2.66 0-.63-.24-1.13-.71-1.51-.47-.37-1.39-.59-2.77-.65L8.72 0h15.3l-.256.87c-1.474.03-2.574.36-3.303.986s-1.37 1.904-1.94 3.832l-5.4 18.732c-.69 2.383-1.03 3.833-1.03 4.35 0 .31.18.604.53.877.36.272.93.415 1.71.415 2.6 0 5.11-.597 7.54-1.787 2.42-1.19 4.47-2.97 6.15-5.336H29l-3.525 8.93zm-1.217.028h-9.88l-1.98 2.443-2.26 2.703c-.44.58-.76 1.105-.97 1.574-.16.36-.24.723-.24 1.082 0 .377.2.725.6 1.045.4.32 1.06.5 1.98.55v.87H2l.233-.87c.846-.15 1.6-.44 2.256-.9.88-.63 2.14-1.92 3.78-3.88L30.86 9.56h1.06l-1.06 26.09c-.046 1.365-.07 2.188-.07 2.47 0 1.065.216 1.843.646 2.327.43.486 1.147.77 2.15.85l-.235.87h-13.8l.26-.87c1.36-.128 2.15-.237 2.35-.33.44-.22.84-.68 1.2-1.376s.58-1.91.66-3.63l.21-4.06zm0-1.927l.61-10.39-8.87 10.39h8.25zm19.08-.543v7.217c0 .64.07 1.05.22 1.23.15.18.44.28.88.3v.35H39.5v-.35c.404-.02.703-.13.898-.35.13-.15.195-.55.195-1.19v-5.31c0-.65-.075-1.06-.225-1.23-.15-.18-.436-.28-.865-.31v-.36h3.82zm-1.37-4.41c.42 0 .78.145 1.07.44.29.296.43.65.43 1.066 0 .416-.15.77-.44 1.062-.3.293-.66.438-1.07.438-.42 0-.77-.146-1.06-.438-.29-.292-.44-.646-.44-1.062 0-.415.14-.77.44-1.065.29-.295.64-.442 1.06-.442zm7.07 4.41v1.18c.46-.506.91-.875 1.34-1.106.43-.23.89-.346 1.38-.346.59 0 1.08.164 1.47.49.39.33.65.736.78 1.224.1.37.15 1.082.15 2.133v3.545c0 .7.06 1.137.19 1.31.12.173.39.282.79.327v.35h-4.6v-.35c.34-.05.59-.19.74-.43.1-.17.15-.57.15-1.21V32.5c0-.746-.03-1.217-.09-1.412-.06-.193-.16-.346-.3-.453-.14-.107-.29-.16-.46-.16-.56 0-1.08.398-1.56 1.196v4.88c0 .69.06 1.12.19 1.3s.36.3.7.34v.35h-4.6v-.35c.385-.04.656-.16.82-.37.11-.14.164-.56.164-1.26v-5.14c0-.69-.06-1.12-.183-1.28-.12-.17-.39-.28-.79-.33v-.36h3.72zm14.8 6.76l.3.23c-.43.806-.97 1.405-1.6 1.798-.64.393-1.32.59-2.04.59-1.22 0-2.19-.457-2.92-1.373s-1.09-2.018-1.09-3.302c0-1.24.33-2.33.99-3.27.8-1.137 1.9-1.706 3.3-1.706.94 0 1.69.23 2.24.71.55.47.83 1 .83 1.58 0 .37-.12.66-.34.88-.23.22-.52.33-.88.33-.39 0-.7-.13-.95-.38s-.41-.71-.47-1.36c-.04-.41-.13-.7-.28-.86-.15-.17-.33-.25-.53-.25-.31 0-.57.16-.796.5-.34.5-.51 1.26-.51 2.29 0 .85.136 1.67.41 2.46.27.78.645 1.36 1.12 1.74.353.28.78.42 1.264.42.32 0 .62-.07.91-.22.284-.15.623-.438 1.013-.85zm3.24-.655c.45 0 .84.16 1.15.48.31.315.47.7.47 1.147 0 .45-.16.83-.48 1.146-.32.312-.7.473-1.15.473-.45 0-.83-.158-1.15-.473-.32-.316-.48-.697-.48-1.146 0-.447.16-.832.47-1.148.32-.32.7-.48 1.15-.48z"/></svg>