<svg xmlns="http://www.w3.org/2000/svg" width="32.002" height="32" viewBox="0 0 32.002 32"><path fill="#444" d="M31.71 25.708L22 16l9.71-9.708c.103-.104.18-.228.228-.356.133-.355.057-.77-.23-1.058L27.124.292c-.286-.286-.702-.36-1.057-.23-.13.05-.253.126-.357.23L16 10 6.294.292C6.19.188 6.066.112 5.936.064 5.58-.07 5.166.007 4.88.294L.292 4.877c-.286.286-.36.702-.23 1.057.05.13.125.252.23.357L10 16 .294 25.708c-.104.104-.18.227-.23.355-.132.355-.056.77.23 1.06l4.586 4.585c.285.285.7.36 1.056.23.13-.05.253-.126.357-.23L16 22l9.71 9.71c.103.103.226.18.356.228.355.133.77.057 1.057-.23l4.586-4.585c.284-.287.36-.703.227-1.06-.05-.128-.125-.25-.23-.355z"/></svg>