<svg xmlns="http://www.w3.org/2000/svg" width="88" height="118.461" viewBox="0 0 88 118.461"><path fill="#C6C6C5" d="M88 115.46c0 1.66-1.342 3-3 3H3c-1.656 0-3-1.34-3-3V3c0-1.656 1.344-3 3-3h42l43 37.96v77.5z"/><path fill="#90D3F4" d="M16.678 28.4h55.645v55.645H16.678z"/><path fill="#93C01F" d="M72.322 84.062H16.678v-27.45l17.644 10.94L59.094 49.48l13.228 7.132z"/><circle fill="#F8B133" cx="33.171" cy="41.839" r="6.909"/><path d="M29.642 95.854v15.057h-1.944V95.856h1.944zm16.083 8.445c-.11-2.1-.246-4.626-.223-6.503h-.068c-.514 1.766-1.14 3.642-1.898 5.72l-2.658 7.304h-1.475l-2.436-7.17c-.715-2.122-1.317-4.065-1.742-5.853h-.045c-.044 1.877-.156 4.4-.29 6.657l-.402 6.456h-1.854l1.05-15.056h2.48l2.568 7.283c.625 1.854 1.14 3.507 1.52 5.07h.066c.38-1.52.916-3.172 1.586-5.07l2.68-7.283h2.48l.94 15.057h-1.9l-.38-6.61zm16.728 5.94c-.87.312-2.59.826-4.623.826-2.28 0-4.156-.58-5.63-1.988-1.296-1.252-2.1-3.263-2.1-5.608.022-4.49 3.104-7.773 8.153-7.773 1.742 0 3.105.38 3.754.69l-.47 1.588c-.804-.357-1.81-.648-3.33-.648-3.66 0-6.052 2.278-6.052 6.054 0 3.82 2.3 6.077 5.807 6.077 1.273 0 2.145-.18 2.592-.4v-4.49h-3.06v-1.565h4.958v7.236z" fill="#868686"/><path fill="#D9D9D9" d="M88 37.96H45V0z"/><path opacity=".3" d="M45 37.96h43v33.865z"/></svg>